<svg width="230" height="252" viewBox="0 0 230 252" fill="none" xmlns="http://www.w3.org/2000/svg">
<g clip-path="url(#clip0_320_1414)">
<path fill-rule="evenodd" clip-rule="evenodd" d="M5 65L115 0L225 65L115 10L5 65ZM5 172L115 252L225 167L115 242L5 172Z" fill="#476377"/>
<path d="M30 161.474L3.38346 142.075L0 109.368L30 92L60 109.368L55 142.075L30 161.474ZM6.5 139.5L30 157.414L52.5 139.5L56.6165 111.398L30 96.0602L3.38346 111.398L6.5 139.5Z" fill="url(#paint0_linear_320_1414)"/>
<path d="M121.851 132.424C122.142 132.424 122.366 132.636 122.366 132.94C122.366 133.231 122.14 133.442 121.85 133.442H107.15C106.86 133.442 106.635 133.231 106.635 132.94C106.635 132.636 106.86 132.424 107.15 132.424H109.501C110.813 132.424 111.548 131.435 111.067 130.14L107.023 119.535H90.3615L86.2625 130.14C85.8055 131.32 86.5249 132.424 87.8293 132.424H90.1794C90.4699 132.424 90.6952 132.636 90.6952 132.94C90.6952 133.231 90.4699 133.442 90.1794 133.442H80.5158C80.2252 133.442 80 133.231 80 132.94C80 132.636 80.2252 132.424 80.5158 132.424H82.0825C83.7798 132.424 84.5495 131.576 85.0855 130.14L100.627 90.1839H101.861L117.216 130.205C117.687 131.38 118.587 132.424 120.415 132.424H121.851ZM90.7699 118.531H106.652L98.7702 97.8624L90.7699 118.531ZM155.36 133.678L154.126 133.678L137.409 93.4971V130.864C137.409 131.677 138.013 132.425 138.983 132.425H140.674C140.978 132.425 141.189 132.636 141.189 132.94C141.189 133.231 140.978 133.442 140.674 133.442H133.02C132.716 133.442 132.505 133.231 132.505 132.94C132.505 132.636 132.716 132.425 133.02 132.425H134.711C135.681 132.425 136.284 131.677 136.284 130.864V92.9993C136.284 92.1865 135.681 91.4391 134.711 91.4391H133.02C132.716 91.4391 132.505 91.2275 132.505 90.9239C132.505 90.6334 132.716 90.4219 133.02 90.4219H142.101L157.024 126.291L171 90.4219H179.944C180.247 90.4219 180.459 90.6334 180.459 90.9377C180.459 91.2282 180.247 91.4397 179.944 91.4397H178.253C177.283 91.4397 176.68 92.1872 176.68 92.9999V130.865C176.68 131.678 177.283 132.425 178.253 132.425H179.944C180.247 132.425 180.459 132.637 180.459 132.927C180.459 133.231 180.247 133.443 179.944 133.443H167.858C167.553 133.443 167.342 133.231 167.342 132.927C167.342 132.637 167.553 132.425 167.858 132.425H169.548C170.512 132.425 171.114 131.689 171.122 130.881V93.1436L155.36 133.678ZM230 129.937C225.194 132.474 219.853 133.863 215.079 133.863C203.24 133.863 193.888 126.051 193.888 111.964C193.888 96.8546 204.358 90 214.628 90C222.791 90 229.733 94.3804 229.733 100.542C229.733 103.633 228.067 104.943 226.48 104.943C224.985 104.943 223.555 103.856 223.555 102.059C223.555 99.7185 226.311 99.2054 226.311 97.337C226.311 94.2218 221.14 91.1764 215.327 91.1764C208.155 91.1764 199.793 95.9889 199.793 111.965C199.793 125.474 206.771 132.606 216.082 132.606C218.67 132.606 221.518 132.048 224.442 130.918V117.08C224.442 116.268 223.839 115.52 222.869 115.52H218.319C218.016 115.52 217.804 115.309 217.804 115.018C217.804 114.714 218.016 114.502 218.319 114.502H230L230 129.937Z" fill="#111111"/>
<path d="M101.114 162.191L100.411 160.553H96.8113L96.1075 162.191H95L98.5533 154H98.6686L102.222 162.191H101.114ZM97.2266 159.584H99.9954L98.611 156.388L97.2266 159.584ZM112.341 154.115H113.38V162.306H113.253L107.83 156.55V162.191H106.804V154H106.919L112.341 159.757V154.115ZM125.449 157.507V161.464C124.826 161.937 123.972 162.306 122.622 162.306C120.084 162.306 118.434 160.461 118.434 158.153C118.434 155.846 120.176 154 122.599 154C123.718 154 124.641 154.404 125.368 154.981L124.826 155.765C124.191 155.257 123.407 154.992 122.599 154.992C120.869 154.992 119.519 156.307 119.519 158.153C119.519 159.999 120.765 161.303 122.622 161.303C123.326 161.303 123.926 161.153 124.41 160.922V158.511H122.853L122.922 157.507H125.449ZM130.63 158.995V154.115H131.669V158.915C131.669 160.472 132.568 161.268 133.837 161.268C135.107 161.268 136.018 160.472 136.018 158.915V154.115H137.045V158.995C137.045 161.095 135.845 162.306 133.837 162.306C131.842 162.306 130.63 161.095 130.63 158.995ZM143.392 161.199H146.806L146.737 162.191H142.353V154.115H143.392V161.199ZM156.799 162.191L156.095 160.553H152.496L151.792 162.191H150.684L154.238 154H154.353L157.906 162.191H156.799ZM152.911 159.584H155.68L154.295 156.388L152.911 159.584ZM168.36 157.034C168.36 158.338 167.749 159.457 166.491 159.826L168.233 162.191H166.987L165.338 159.953H163.526V162.191H162.488V154.115H165.534C167.437 154.115 168.36 155.431 168.36 157.034ZM163.526 155.084V158.972H165.488C166.791 158.972 167.322 158.015 167.322 157.034C167.322 156.054 166.791 155.084 165.488 155.084H163.526ZM183.534 154.115C186.211 154.115 187.688 155.754 187.688 158.153C187.688 160.553 186.211 162.191 183.534 162.191H180.766V154.115H183.534ZM183.592 161.199C185.553 161.199 186.649 159.976 186.649 158.153C186.649 156.319 185.553 155.108 183.592 155.108H181.804V161.199H183.592ZM197.599 161.199L197.669 162.191H192.754V154.115H197.438L197.519 155.108H193.792V157.08H196.319V158.072H193.792V161.199H197.599ZM201.904 154.115H203.035L205.481 160.022L207.938 154.115H209.068L205.55 162.306H205.423L201.904 154.115ZM214.342 162.249C213.939 162.249 213.65 161.96 213.65 161.568C213.65 161.187 213.939 160.899 214.342 160.899C214.712 160.899 215 161.187 215 161.568C215 161.96 214.712 162.249 214.342 162.249Z" fill="#111111"/>
<path d="M38.4912 140.924C38.1544 140.924 38.117 140.662 38.117 140.4C37.9673 138.828 38.2292 137.294 38.6784 135.797C39.352 133.476 40.2877 131.268 41.186 129.022C41.3357 128.648 41.6351 128.311 41.3357 128.012C41.0363 127.675 40.662 128.049 40.3251 128.124C37.7427 128.873 35.5345 130.407 33.1018 131.455C32.2035 131.867 31.3427 132.428 30.407 132.69C27.4503 133.476 25.0924 135.235 22.7719 137.144C21.0503 138.491 19.2164 139.652 17.083 140.213C12.7415 141.336 10.6082 139.726 10.0468 135.347C9.97193 135.011 10.0094 134.711 10.0094 134.412C9.97193 129.284 14.8749 122.285 21.462 121.163C23.5579 120.788 25.9532 122.061 26.6269 123.745C26.7392 123.97 26.814 124.306 26.6269 124.419C26.2152 124.643 26.2152 124.194 26.0655 123.97C24.6433 122.023 23.1462 121.574 20.7509 122.098C16.1474 123.109 11.3193 128.161 10.7205 134.075C10.6082 135.422 10.9076 136.807 11.5813 138.042C12.4421 139.689 14.0515 140.325 16.2596 139.764C19.2538 138.978 21.724 137.219 24.0819 135.273C24.269 135.123 24.531 134.898 24.3813 134.674C24.269 134.524 23.9322 134.487 23.7076 134.487C22.6222 134.524 21.6117 134.412 20.676 133.813C20.414 133.663 20.0023 133.513 20.152 133.177C20.3392 132.728 20.676 133.102 20.9006 133.177C23.5579 134.374 25.7661 133.963 27.9743 131.867C32.7275 127.413 36.9942 122.585 41.5228 117.906C43.5064 115.848 45.5649 113.864 47.7357 111.993C47.9602 111.806 48.2222 111.581 48.4842 111.432C48.8211 111.17 49.2327 110.833 49.6819 111.095C50.1684 111.432 49.9813 111.993 49.869 112.48C49.7942 112.929 49.4947 113.378 49.3076 113.827C47.586 117.607 45.4152 121.163 43.8058 125.018C43.2819 126.253 43.2444 126.702 44.7041 126.402C44.9661 126.328 45.2281 126.365 45.4526 126.402C46.014 126.552 47.062 126.477 46.9871 127.001C46.8749 127.675 46.0515 127.151 45.5275 127.113C43.5439 126.926 42.7953 127.375 42.0094 129.247C40.7743 132.129 39.5018 135.048 38.9029 138.154C38.7906 138.903 38.7906 139.651 38.7532 140.4C38.7532 140.587 38.8655 140.924 38.4912 140.924ZM28.8351 132.653L31.0058 131.754C34.524 130.22 37.7053 127.974 41.4854 127.076C42.1591 126.889 42.3836 126.29 42.6082 125.691C44.0678 122.285 45.752 118.954 47.5111 115.698L48.8211 113.004C48.9333 112.779 48.9333 112.517 48.7088 112.367C48.5965 112.33 48.3345 112.442 48.1848 112.554C47.848 112.816 47.5485 113.116 47.2117 113.415C44.517 115.811 42.0094 118.393 39.5392 121.013C36.0585 124.643 32.7649 128.461 28.9474 131.792C28.7228 132.016 28.4608 132.204 28.4608 132.54L28.8351 132.653Z" fill="url(#paint1_linear_320_1414)"/>
</g>
<defs>
<linearGradient id="paint0_linear_320_1414" x1="0" y1="92" x2="60" y2="92" gradientUnits="userSpaceOnUse">
<stop stop-color="#7D141D"/>
<stop offset="1" stop-color="#FF1E27"/>
</linearGradient>
<linearGradient id="paint1_linear_320_1414" x1="10" y1="111" x2="50" y2="111" gradientUnits="userSpaceOnUse">
<stop stop-color="#7D141D"/>
<stop offset="1" stop-color="#FF1E27"/>
</linearGradient>
<clipPath id="clip0_320_1414">
<rect width="230" height="252" fill="white"/>
</clipPath>
</defs>
</svg>
